<?xml version="1.0" encoding="UTF-8" standalone="no"?>
<!DOCTYPE svg PUBLIC "-//W3C//DTD SVG 1.1//EN"
 "http://www.w3.org/Graphics/SVG/1.1/DTD/svg11.dtd">
<!-- Generated by graphviz version 2.43.0 (0)
 -->
<!-- Title: Ares.h Pages: 1 -->
<!--zoomable 148 -->

<svg id="main" version="1.1" xmlns="http://www.w3.org/2000/svg" xmlns:xlink="http://www.w3.org/1999/xlink" xml:space="preserve" onload="init(evt)">
<style type="text/css"><![CDATA[
.node, .edge {opacity: 0.7;}
.node.selected, .edge.selected {opacity: 1;}
.edge:hover path { stroke: red; }
.edge:hover polygon { stroke: red; fill: red; }
]]></style>

<defs>
  <circle id="rim" cx="0" cy="0" r="7"/>
  <circle id="rim2" cx="0" cy="0" r="3.5"/>
  <g id="zoomPlus">
    <use xlink:href="#rim" fill="#404040"><set attributeName="fill" to="#808080" begin="zoomplus.mouseover" end="zoomplus.mouseout"/></use>
    <path d="M-4,0h8M0,-4v8" fill="none" stroke="white" stroke-width="1.5" pointer-events="none"/>
  </g>
  <g id="zoomMin">
    <use xlink:href="#rim" fill="#404040"><set attributeName="fill" to="#808080" begin="zoomminus.mouseover" end="zoomminus.mouseout"/></use>
    <path d="M-4,0h8" fill="none" stroke="white" stroke-width="1.5" pointer-events="none"/>
  </g>
  <g id="arrowUp" transform="translate(30 24)">
    <use xlink:href="#rim"/>
    <path pointer-events="none" fill="none" stroke="white" stroke-width="1.5" d="M0,-3.0v7 M-2.5,-0.5L0,-3.0L2.5,-0.5"/>
  </g>
  <g id="arrowRight" transform="rotate(90) translate(36 -43)">
    <use xlink:href="#rim"/>
    <path pointer-events="none" fill="none" stroke="white" stroke-width="1.5" d="M0,-3.0v7 M-2.5,-0.5L0,-3.0L2.5,-0.5"/>
  </g>
  <g id="arrowDown" transform="rotate(180) translate(-30 -48)">
    <use xlink:href="#rim"/>
    <path pointer-events="none" fill="none" stroke="white" stroke-width="1.5" d="M0,-3.0v7 M-2.5,-0.5L0,-3.0L2.5,-0.5"/>
  </g>
  <g id="arrowLeft" transform="rotate(270) translate(-36 17)">
    <use xlink:href="#rim"/>
    <path pointer-events="none" fill="none" stroke="white" stroke-width="1.5" d="M0,-3.0v7 M-2.5,-0.5L0,-3.0L2.5,-0.5"/>
  </g>
  <g id="resetDef">
    <use xlink:href="#rim2" fill="#404040"><set attributeName="fill" to="#808080" begin="reset.mouseover" end="reset.mouseout"/></use>
  </g>
</defs>
<script type="application/ecmascript">
var viewWidth = 7177;
var viewHeight = 148;
var sectionId = 'dynsection-0';
</script>
<script type="application/ecmascript" xlink:href="svg.min.js"/>
<svg id="graph" class="graph">
<g id="viewport">
<title>Ares.h</title>
<!-- Node1 -->
<g id="Node000001" class="node">
<title>Node1</title>
<g id="a_Node000001"><a xlink:title="Main header file for the Ares engine.">
<polygon fill="#999999" stroke="#666666" points="3442.5,-140 3395.5,-140 3395.5,-121 3442.5,-121 3442.5,-140"/>
<text text-anchor="middle" x="3419" y="-128" font-family="Helvetica,sans-Serif" font-size="10.00">Ares.h</text>
</a>
</g>
</g>
<!-- Node2 -->
<g id="Node000002" class="node">
<title>Node2</title>
<g id="a_Node000002"><a xlink:href="Core_8h.html" target="_top" xlink:title="Defines platform detection macros and utility functions.">
<polygon fill="white" stroke="#666666" points="131,-79.5 21,-79.5 21,-60.5 131,-60.5 131,-79.5"/>
<text text-anchor="middle" x="76" y="-67.5" font-family="Helvetica,sans-Serif" font-size="10.00">Engine/Core/Core.h</text>
</a>
</g>
</g>
<!-- Node1&#45;&gt;Node2 -->
<g id="edge1_Node000001_Node000002" class="edge">
<title>Node1&#45;&gt;Node2</title>
<g id="a_edge1_Node000001_Node000002"><a xlink:title=" ">
<path fill="none" stroke="#63b8ff" d="M3395.47,-129.47C3118.45,-129.09 482.89,-124.42 140,-85 133.17,-84.21 125.99,-83.02 119.02,-81.65"/>
<polygon fill="#63b8ff" stroke="#63b8ff" points="119.51,-78.18 109,-79.55 118.07,-85.03 119.51,-78.18"/>
</a>
</g>
</g>
<!-- Node5 -->
<g id="Node000005" class="node">
<title>Node5</title>
<g id="a_Node000005"><a xlink:title=" ">
<polygon fill="#e0e0e0" stroke="#999999" points="262.5,-79.5 149.5,-79.5 149.5,-60.5 262.5,-60.5 262.5,-79.5"/>
<text text-anchor="middle" x="206" y="-67.5" font-family="Helvetica,sans-Serif" font-size="10.00">Engine/Debug/Log.h</text>
</a>
</g>
</g>
<!-- Node1&#45;&gt;Node5 -->
<g id="edge4_Node000001_Node000005" class="edge">
<title>Node1&#45;&gt;Node5</title>
<g id="a_edge4_Node000001_Node000005"><a xlink:title=" ">
<path fill="none" stroke="#63b8ff" d="M3395.17,-129.45C3122.74,-128.8 600.69,-121.83 272,-85 264.8,-84.19 257.22,-82.96 249.87,-81.55"/>
<polygon fill="#63b8ff" stroke="#63b8ff" points="250.55,-78.12 240.05,-79.54 249.15,-84.97 250.55,-78.12"/>
</a>
</g>
</g>
<!-- Node6 -->
<g id="Node000006" class="node">
<title>Node6</title>
<g id="a_Node000006"><a xlink:href="Application_8h.html" target="_top" xlink:title="Defines the core Application class for the Ares engine.">
<polygon fill="white" stroke="#666666" points="423,-79.5 281,-79.5 281,-60.5 423,-60.5 423,-79.5"/>
<text text-anchor="middle" x="352" y="-67.5" font-family="Helvetica,sans-Serif" font-size="10.00">Engine/Core/Application.h</text>
</a>
</g>
</g>
<!-- Node1&#45;&gt;Node6 -->
<g id="edge5_Node000001_Node000006" class="edge">
<title>Node1&#45;&gt;Node6</title>
<g id="a_edge5_Node000001_Node000006"><a xlink:title=" ">
<path fill="none" stroke="#63b8ff" d="M3395.21,-129.36C3130.96,-127.78 748.68,-112.84 437,-85 426.94,-84.1 416.28,-82.7 406.03,-81.13"/>
<polygon fill="#63b8ff" stroke="#63b8ff" points="406.39,-77.64 395.96,-79.52 405.28,-84.56 406.39,-77.64"/>
</a>
</g>
</g>
<!-- Node7 -->
<g id="Node000007" class="node">
<title>Node7</title>
<g id="a_Node000007"><a xlink:href="Flags_8h.html" target="_top" xlink:title="Contains window configuration flags for the application.">
<polygon fill="white" stroke="#666666" points="540.5,-19 427.5,-19 427.5,0 540.5,0 540.5,-19"/>
<text text-anchor="middle" x="484" y="-7" font-family="Helvetica,sans-Serif" font-size="10.00">Engine/Core/Flags.h</text>
</a>
</g>
</g>
<!-- Node1&#45;&gt;Node7 -->
<g id="edge8_Node000001_Node000007" class="edge">
<title>Node1&#45;&gt;Node7</title>
<g id="a_edge8_Node000001_Node000007"><a xlink:title=" ">
<path fill="none" stroke="#63b8ff" d="M3395.49,-129.37C3119.05,-127.85 497.23,-112.64 470,-85 455.33,-70.11 464.25,-45.02 473.14,-28.12"/>
<polygon fill="#63b8ff" stroke="#63b8ff" points="476.28,-29.67 478.19,-19.25 470.2,-26.21 476.28,-29.67"/>
</a>
</g>
</g>
<!-- Node9 -->
<g id="Node000009" class="node">
<title>Node9</title>
<g id="a_Node000009"><a xlink:href="Input_8h.html" target="_top" xlink:title="Interface for handling user input (keyboard and mouse).">
<polygon fill="white" stroke="#666666" points="1506,-79.5 1394,-79.5 1394,-60.5 1506,-60.5 1506,-79.5"/>
<text text-anchor="middle" x="1450" y="-67.5" font-family="Helvetica,sans-Serif" font-size="10.00">Engine/Core/Input.h</text>
</a>
</g>
</g>
<!-- Node1&#45;&gt;Node9 -->
<g id="edge9_Node000001_Node000009" class="edge">
<title>Node1&#45;&gt;Node9</title>
<g id="a_edge9_Node000001_Node000009"><a xlink:title=" ">
<path fill="none" stroke="#63b8ff" d="M3395.23,-129.55C3203.37,-129.88 1904.76,-130.38 1516,-85 1509.04,-84.19 1501.74,-82.99 1494.62,-81.63"/>
<polygon fill="#63b8ff" stroke="#63b8ff" points="1494.89,-78.12 1484.4,-79.56 1493.5,-84.98 1494.89,-78.12"/>
</a>
</g>
</g>
<!-- Node11 -->
<g id="Node000011" class="node">
<title>Node11</title>
<g id="a_Node000011"><a xlink:href="Layer_8h.html" target="_top" xlink:title="Defines the Layer class for managing application behavior and rendering.">
<polygon fill="white" stroke="#666666" points="735.5,-79.5 622.5,-79.5 622.5,-60.5 735.5,-60.5 735.5,-79.5"/>
<text text-anchor="middle" x="679" y="-67.5" font-family="Helvetica,sans-Serif" font-size="10.00">Engine/Core/Layer.h</text>
</a>
</g>
</g>
<!-- Node1&#45;&gt;Node11 -->
<g id="edge11_Node000001_Node000011" class="edge">
<title>Node1&#45;&gt;Node11</title>
<g id="a_edge11_Node000001_Node000011"><a xlink:title=" ">
<path fill="none" stroke="#63b8ff" d="M3395.4,-129.38C3147.39,-128.13 1022.96,-116.5 745,-85 737.8,-84.18 730.22,-82.94 722.87,-81.53"/>
<polygon fill="#63b8ff" stroke="#63b8ff" points="723.55,-78.1 713.05,-79.53 722.15,-84.96 723.55,-78.1"/>
</a>
</g>
</g>
<!-- Node12 -->
<g id="Node000012" class="node">
<title>Node12</title>
<g id="a_Node000012"><a xlink:href="MainThreadQueue_8h.html" target="_top" xlink:title="Defines the MainThreadQueue class for managing main&#45;thread&#45;specific tasks.">
<polygon fill="#fff0f0" stroke="red" points="930,-79.5 754,-79.5 754,-60.5 930,-60.5 930,-79.5"/>
<text text-anchor="middle" x="842" y="-67.5" font-family="Helvetica,sans-Serif" font-size="10.00">Engine/Core/MainThreadQueue.h</text>
</a>
</g>
</g>
<!-- Node1&#45;&gt;Node12 -->
<g id="edge12_Node000001_Node000012" class="edge">
<title>Node1&#45;&gt;Node12</title>
<g id="a_edge12_Node000001_Node000012"><a xlink:title=" ">
<path fill="none" stroke="#63b8ff" d="M3395.48,-129.49C3174.07,-129.3 1452.73,-126.52 939,-85 927.14,-84.04 914.52,-82.56 902.45,-80.92"/>
<polygon fill="#63b8ff" stroke="#63b8ff" points="902.85,-77.44 892.46,-79.51 901.87,-84.37 902.85,-77.44"/>
</a>
</g>
</g>
<!-- Node14 -->
<g id="Node000014" class="node">
<title>Node14</title>
<g id="a_Node000014"><a xlink:href="ThreadPool_8h.html" target="_top" xlink:title="Defines the ThreadPool class for managing multi&#45;threaded task execution.">
<polygon fill="#fff0f0" stroke="red" points="1090,-79.5 948,-79.5 948,-60.5 1090,-60.5 1090,-79.5"/>
<text text-anchor="middle" x="1019" y="-67.5" font-family="Helvetica,sans-Serif" font-size="10.00">Engine/Core/ThreadPool.h</text>
</a>
</g>
</g>
<!-- Node1&#45;&gt;Node14 -->
<g id="edge13_Node000001_Node000014" class="edge">
<title>Node1&#45;&gt;Node14</title>
<g id="a_edge13_Node000001_Node000014"><a xlink:title=" ">
<path fill="none" stroke="#63b8ff" d="M3395.35,-129.54C3181.5,-129.86 1578.52,-130.68 1100,-85 1090.71,-84.11 1080.89,-82.77 1071.41,-81.25"/>
<polygon fill="#63b8ff" stroke="#63b8ff" points="1071.74,-77.76 1061.3,-79.56 1070.58,-84.66 1071.74,-77.76"/>
</a>
</g>
</g>
<!-- Node16 -->
<g id="Node000016" class="node">
<title>Node16</title>
<g id="a_Node000016"><a xlink:href="Timestep_8h.html" target="_top" xlink:title="Contains the Timestep class, which is used to represent the time elapsed in a frame.">
<polygon fill="white" stroke="#666666" points="1241.5,-79.5 1108.5,-79.5 1108.5,-60.5 1241.5,-60.5 1241.5,-79.5"/>
<text text-anchor="middle" x="1175" y="-67.5" font-family="Helvetica,sans-Serif" font-size="10.00">Engine/Core/Timestep.h</text>
</a>
</g>
</g>
<!-- Node1&#45;&gt;Node16 -->
<g id="edge14_Node000001_Node000016" class="edge">
<title>Node1&#45;&gt;Node16</title>
<g id="a_edge14_Node000001_Node000016"><a xlink:title=" ">
<path fill="none" stroke="#63b8ff" d="M3395.29,-129.54C3189.09,-129.84 1696.93,-130.35 1251,-85 1242.46,-84.13 1233.45,-82.82 1224.72,-81.35"/>
<polygon fill="#63b8ff" stroke="#63b8ff" points="1225.12,-77.86 1214.66,-79.56 1223.9,-84.76 1225.12,-77.86"/>
</a>
</g>
</g>
<!-- Node17 -->
<g id="Node000017" class="node">
<title>Node17</title>
<g id="a_Node000017"><a xlink:title=" ">
<polygon fill="#e0e0e0" stroke="#999999" points="1376,-79.5 1260,-79.5 1260,-60.5 1376,-60.5 1376,-79.5"/>
<text text-anchor="middle" x="1318" y="-67.5" font-family="Helvetica,sans-Serif" font-size="10.00">Engine/Core/Utility.h</text>
</a>
</g>
</g>
<!-- Node1&#45;&gt;Node17 -->
<g id="edge15_Node000001_Node000017" class="edge">
<title>Node1&#45;&gt;Node17</title>
<g id="a_edge15_Node000001_Node000017"><a xlink:title=" ">
<path fill="none" stroke="#63b8ff" d="M3395.2,-129.58C3195.87,-130.19 1801.72,-132.68 1385,-85 1377.78,-84.17 1370.18,-82.94 1362.8,-81.55"/>
<polygon fill="#63b8ff" stroke="#63b8ff" points="1363.42,-78.1 1352.92,-79.57 1362.04,-84.96 1363.42,-78.1"/>
</a>
</g>
</g>
<!-- Node18 -->
<g id="Node000018" class="node">
<title>Node18</title>
<g id="a_Node000018"><a xlink:href="Window_8h.html" target="_top" xlink:title="contains the declaration of the Window interface and associated data structures.">
<polygon fill="white" stroke="#666666" points="604.5,-79.5 479.5,-79.5 479.5,-60.5 604.5,-60.5 604.5,-79.5"/>
<text text-anchor="middle" x="542" y="-67.5" font-family="Helvetica,sans-Serif" font-size="10.00">Engine/Core/Window.h</text>
</a>
</g>
</g>
<!-- Node1&#45;&gt;Node18 -->
<g id="edge16_Node000001_Node000018" class="edge">
<title>Node1&#45;&gt;Node18</title>
<g id="a_edge16_Node000001_Node000018"><a xlink:title=" ">
<path fill="none" stroke="#63b8ff" d="M3395.44,-129.38C3140.96,-128.09 905.38,-115.89 613,-85 605.09,-84.16 596.76,-82.89 588.69,-81.44"/>
<polygon fill="#63b8ff" stroke="#63b8ff" points="589.14,-77.96 578.66,-79.53 587.83,-84.84 589.14,-77.96"/>
</a>
</g>
</g>
<!-- Node19 -->
<g id="Node000019" class="node">
<title>Node19</title>
<g id="a_Node000019"><a xlink:href="Asset_8h.html" target="_top" xlink:title="Defines the Asset and AssetBase classes and related types for managing assets in the Ares Engine.">
<polygon fill="#fff0f0" stroke="red" points="1639.5,-79.5 1524.5,-79.5 1524.5,-60.5 1639.5,-60.5 1639.5,-79.5"/>
<text text-anchor="middle" x="1582" y="-67.5" font-family="Helvetica,sans-Serif" font-size="10.00">Engine/Data/Asset.h</text>
</a>
</g>
</g>
<!-- Node1&#45;&gt;Node19 -->
<g id="edge19_Node000001_Node000019" class="edge">
<title>Node1&#45;&gt;Node19</title>
<g id="a_edge19_Node000001_Node000019"><a xlink:title=" ">
<path fill="none" stroke="#63b8ff" d="M3395.46,-129.49C3212.08,-129.36 2009.68,-126.87 1649,-85 1641.78,-84.16 1634.18,-82.92 1626.8,-81.53"/>
<polygon fill="#63b8ff" stroke="#63b8ff" points="1627.42,-78.08 1616.92,-79.54 1626.04,-84.94 1627.42,-78.08"/>
</a>
</g>
</g>
<!-- Node22 -->
<g id="Node000022" class="node">
<title>Node22</title>
<g id="a_Node000022"><a xlink:href="AssetManager_8h.html" target="_top" xlink:title="Declaration of the AssetManager class for managing assets, including staging, loading,...">
<polygon fill="white" stroke="#666666" points="1814.5,-79.5 1657.5,-79.5 1657.5,-60.5 1814.5,-60.5 1814.5,-79.5"/>
<text text-anchor="middle" x="1736" y="-67.5" font-family="Helvetica,sans-Serif" font-size="10.00">Engine/Data/AssetManager.h</text>
</a>
</g>
</g>
<!-- Node1&#45;&gt;Node22 -->
<g id="edge20_Node000001_Node000022" class="edge">
<title>Node1&#45;&gt;Node22</title>
<g id="a_edge20_Node000001_Node000022"><a xlink:title=" ">
<path fill="none" stroke="#63b8ff" d="M3395.38,-129.26C3222.37,-127.46 2148.27,-115.19 1824,-85 1813.73,-84.04 1802.84,-82.64 1792.34,-81.08"/>
<polygon fill="#63b8ff" stroke="#63b8ff" points="1792.86,-77.61 1782.44,-79.54 1791.79,-84.53 1792.86,-77.61"/>
</a>
</g>
</g>
<!-- Node23 -->
<g id="Node000023" class="node">
<title>Node23</title>
<g id="a_Node000023"><a xlink:href="DataBuffer_8h.html" target="_top" xlink:title="Defines the DataBuffer class for managing raw memory buffers.">
<polygon fill="white" stroke="#666666" points="1973,-79.5 1833,-79.5 1833,-60.5 1973,-60.5 1973,-79.5"/>
<text text-anchor="middle" x="1903" y="-67.5" font-family="Helvetica,sans-Serif" font-size="10.00">Engine/Data/DataBuffer.h</text>
</a>
</g>
</g>
<!-- Node1&#45;&gt;Node23 -->
<g id="edge21_Node000001_Node000023" class="edge">
<title>Node1&#45;&gt;Node23</title>
<g id="a_edge21_Node000001_Node000023"><a xlink:title=" ">
<path fill="none" stroke="#63b8ff" d="M3395.44,-129.23C3232.69,-127.29 2273.31,-114.75 1983,-85 1973.94,-84.07 1964.35,-82.72 1955.08,-81.22"/>
<polygon fill="#63b8ff" stroke="#63b8ff" points="1955.64,-77.76 1945.19,-79.54 1954.47,-84.66 1955.64,-77.76"/>
</a>
</g>
</g>
<!-- Node24 -->
<g id="Node000024" class="node">
<title>Node24</title>
<g id="a_Node000024"><a xlink:href="MemoryDataProvider_8h.html" target="_top" xlink:title="Provides functionality for managing memory data buffers.">
<polygon fill="white" stroke="#666666" points="2182.5,-79.5 1991.5,-79.5 1991.5,-60.5 2182.5,-60.5 2182.5,-79.5"/>
<text text-anchor="middle" x="2087" y="-67.5" font-family="Helvetica,sans-Serif" font-size="10.00">Engine/Data/MemoryDataProvider.h</text>
</a>
</g>
</g>
<!-- Node1&#45;&gt;Node24 -->
<g id="edge22_Node000001_Node000024" class="edge">
<title>Node1&#45;&gt;Node24</title>
<g id="a_edge22_Node000001_Node000024"><a xlink:title=" ">
<path fill="none" stroke="#63b8ff" d="M3395.14,-129.49C3269.9,-129.25 2675.75,-125.93 2192,-85 2179.49,-83.94 2166.19,-82.45 2153.41,-80.84"/>
<polygon fill="#63b8ff" stroke="#63b8ff" points="2153.66,-77.34 2143.29,-79.52 2152.76,-84.28 2153.66,-77.34"/>
</a>
</g>
</g>
<!-- Node25 -->
<g id="Node000025" class="node">
<title>Node25</title>
<g id="a_Node000025"><a xlink:title=" ">
<polygon fill="#e0e0e0" stroke="#999999" points="2333,-79.5 2201,-79.5 2201,-60.5 2333,-60.5 2333,-79.5"/>
<text text-anchor="middle" x="2267" y="-67.5" font-family="Helvetica,sans-Serif" font-size="10.00">Engine/Data/RawData.h</text>
</a>
</g>
</g>
<!-- Node1&#45;&gt;Node25 -->
<g id="edge23_Node000001_Node000025" class="edge">
<title>Node1&#45;&gt;Node25</title>
<g id="a_edge23_Node000001_Node000025"><a xlink:title=" ">
<path fill="none" stroke="#63b8ff" d="M3395.43,-129.75C3280,-130.73 2762.91,-132.12 2343,-85 2334.66,-84.06 2325.86,-82.75 2317.33,-81.3"/>
<polygon fill="#63b8ff" stroke="#63b8ff" points="2317.93,-77.85 2307.47,-79.55 2316.7,-84.74 2317.93,-77.85"/>
</a>
</g>
</g>
<!-- Node26 -->
<g id="Node000026" class="node">
<title>Node26</title>
<g id="a_Node000026"><a xlink:title=" ">
<polygon fill="#e0e0e0" stroke="#999999" points="2516.5,-79.5 2351.5,-79.5 2351.5,-60.5 2516.5,-60.5 2516.5,-79.5"/>
<text text-anchor="middle" x="2434" y="-67.5" font-family="Helvetica,sans-Serif" font-size="10.00">Engine/ECS/Core/Component.h</text>
</a>
</g>
</g>
<!-- Node1&#45;&gt;Node26 -->
<g id="edge24_Node000001_Node000026" class="edge">
<title>Node1&#45;&gt;Node26</title>
<g id="a_edge24_Node000001_Node000026"><a xlink:title=" ">
<path fill="none" stroke="#63b8ff" d="M3395.48,-129.2C3292.41,-127.71 2870.41,-119.7 2526,-85 2515.65,-83.96 2504.68,-82.55 2494.06,-81.03"/>
<polygon fill="#63b8ff" stroke="#63b8ff" points="2494.42,-77.55 2484.02,-79.55 2493.4,-84.47 2494.42,-77.55"/>
</a>
</g>
</g>
<!-- Node27 -->
<g id="Node000027" class="node">
<title>Node27</title>
<g id="a_Node000027"><a xlink:title=" ">
<polygon fill="#e0e0e0" stroke="#999999" points="2671,-79.5 2535,-79.5 2535,-60.5 2671,-60.5 2671,-79.5"/>
<text text-anchor="middle" x="2603" y="-67.5" font-family="Helvetica,sans-Serif" font-size="10.00">Engine/ECS/Core/Entity.h</text>
</a>
</g>
</g>
<!-- Node1&#45;&gt;Node27 -->
<g id="edge25_Node000001_Node000027" class="edge">
<title>Node1&#45;&gt;Node27</title>
<g id="a_edge25_Node000001_Node000027"><a xlink:title=" ">
<path fill="none" stroke="#63b8ff" d="M3395.33,-129.08C3303.33,-127.25 2960.76,-118.42 2681,-85 2672.65,-84 2663.85,-82.68 2655.28,-81.25"/>
<polygon fill="#63b8ff" stroke="#63b8ff" points="2655.82,-77.8 2645.37,-79.54 2654.63,-84.69 2655.82,-77.8"/>
</a>
</g>
</g>
<!-- Node28 -->
<g id="Node000028" class="node">
<title>Node28</title>
<g id="a_Node000028"><a xlink:title=" ">
<polygon fill="#e0e0e0" stroke="#999999" points="2868.5,-79.5 2689.5,-79.5 2689.5,-60.5 2868.5,-60.5 2868.5,-79.5"/>
<text text-anchor="middle" x="2779" y="-67.5" font-family="Helvetica,sans-Serif" font-size="10.00">Engine/ECS/Core/EntityManager.h</text>
</a>
</g>
</g>
<!-- Node1&#45;&gt;Node28 -->
<g id="edge26_Node000001_Node000028" class="edge">
<title>Node1&#45;&gt;Node28</title>
<g id="a_edge26_Node000001_Node000028"><a xlink:title=" ">
<path fill="none" stroke="#63b8ff" d="M3395.49,-128.06C3320.11,-123.33 3077.73,-107.32 2878,-85 2867.37,-83.81 2856.12,-82.38 2845.16,-80.9"/>
<polygon fill="#63b8ff" stroke="#63b8ff" points="2845.59,-77.43 2835.21,-79.53 2844.64,-84.36 2845.59,-77.43"/>
</a>
</g>
</g>
<!-- Node29 -->
<g id="Node000029" class="node">
<title>Node29</title>
<g id="a_Node000029"><a xlink:title=" ">
<polygon fill="#e0e0e0" stroke="#999999" points="3025,-79.5 2887,-79.5 2887,-60.5 3025,-60.5 3025,-79.5"/>
<text text-anchor="middle" x="2956" y="-67.5" font-family="Helvetica,sans-Serif" font-size="10.00">Engine/ECS/Core/Scene.h</text>
</a>
</g>
</g>
<!-- Node1&#45;&gt;Node29 -->
<g id="edge27_Node000001_Node000029" class="edge">
<title>Node1&#45;&gt;Node29</title>
<g id="a_edge27_Node000001_Node000029"><a xlink:title=" ">
<path fill="none" stroke="#63b8ff" d="M3395.5,-127.3C3335.25,-121.55 3170.46,-105.11 3034,-85 3026.52,-83.9 3018.66,-82.62 3010.93,-81.3"/>
<polygon fill="#63b8ff" stroke="#63b8ff" points="3011.33,-77.82 3000.88,-79.55 3010.13,-84.72 3011.33,-77.82"/>
</a>
</g>
</g>
<!-- Node30 -->
<g id="Node000030" class="node">
<title>Node30</title>
<g id="a_Node000030"><a xlink:title=" ">
<polygon fill="#e0e0e0" stroke="#999999" points="3189,-79.5 3043,-79.5 3043,-60.5 3189,-60.5 3189,-79.5"/>
<text text-anchor="middle" x="3116" y="-67.5" font-family="Helvetica,sans-Serif" font-size="10.00">Engine/ECS/Core/System.h</text>
</a>
</g>
</g>
<!-- Node1&#45;&gt;Node30 -->
<g id="edge28_Node000001_Node000030" class="edge">
<title>Node1&#45;&gt;Node30</title>
<g id="a_edge28_Node000001_Node000030"><a xlink:title=" ">
<path fill="none" stroke="#63b8ff" d="M3395.22,-124.91C3346.99,-115.6 3236.57,-94.28 3169.94,-81.41"/>
<polygon fill="#63b8ff" stroke="#63b8ff" points="3170.53,-77.96 3160.04,-79.5 3169.2,-84.84 3170.53,-77.96"/>
</a>
</g>
</g>
<!-- Node31 -->
<g id="Node000031" class="node">
<title>Node31</title>
<g id="a_Node000031"><a xlink:title=" ">
<polygon fill="#e0e0e0" stroke="#999999" points="3343,-85 3207,-85 3207,-55 3343,-55 3343,-85"/>
<text text-anchor="start" x="3215" y="-73" font-family="Helvetica,sans-Serif" font-size="10.00">Engine/ECS/Components</text>
<text text-anchor="middle" x="3275" y="-62" font-family="Helvetica,sans-Serif" font-size="10.00">/AllComponents.h</text>
</a>
</g>
</g>
<!-- Node1&#45;&gt;Node31 -->
<g id="edge29_Node000001_Node000031" class="edge">
<title>Node1&#45;&gt;Node31</title>
<g id="a_edge29_Node000001_Node000031"><a xlink:title=" ">
<path fill="none" stroke="#63b8ff" d="M3398.06,-120.99C3377.43,-112.61 3345.27,-99.55 3319,-88.87"/>
<polygon fill="#63b8ff" stroke="#63b8ff" points="3320.2,-85.59 3309.62,-85.06 3317.57,-92.07 3320.2,-85.59"/>
</a>
</g>
</g>
<!-- Node32 -->
<g id="Node000032" class="node">
<title>Node32</title>
<g id="a_Node000032"><a xlink:title=" ">
<polygon fill="#e0e0e0" stroke="#999999" points="3477,-85 3361,-85 3361,-55 3477,-55 3477,-85"/>
<text text-anchor="start" x="3369" y="-73" font-family="Helvetica,sans-Serif" font-size="10.00">Engine/ECS/Systems</text>
<text text-anchor="middle" x="3419" y="-62" font-family="Helvetica,sans-Serif" font-size="10.00">/CameraSystem.h</text>
</a>
</g>
</g>
<!-- Node1&#45;&gt;Node32 -->
<g id="edge30_Node000001_Node000032" class="edge">
<title>Node1&#45;&gt;Node32</title>
<g id="a_edge30_Node000001_Node000032"><a xlink:title=" ">
<path fill="none" stroke="#63b8ff" d="M3419,-120.87C3419,-114.11 3419,-104.35 3419,-95.26"/>
<polygon fill="#63b8ff" stroke="#63b8ff" points="3422.5,-95.11 3419,-85.11 3415.5,-95.11 3422.5,-95.11"/>
</a>
</g>
</g>
<!-- Node33 -->
<g id="Node000033" class="node">
<title>Node33</title>
<g id="a_Node000033"><a xlink:title=" ">
<polygon fill="#e0e0e0" stroke="#999999" points="3611,-85 3495,-85 3495,-55 3611,-55 3611,-85"/>
<text text-anchor="start" x="3503" y="-73" font-family="Helvetica,sans-Serif" font-size="10.00">Engine/ECS/Systems</text>
<text text-anchor="middle" x="3553" y="-62" font-family="Helvetica,sans-Serif" font-size="10.00">/LightSystem.h</text>
</a>
</g>
</g>
<!-- Node1&#45;&gt;Node33 -->
<g id="edge31_Node000001_Node000033" class="edge">
<title>Node1&#45;&gt;Node33</title>
<g id="a_edge31_Node000001_Node000033"><a xlink:title=" ">
<path fill="none" stroke="#63b8ff" d="M3438.48,-120.99C3457.52,-112.68 3487.09,-99.78 3511.41,-89.16"/>
<polygon fill="#63b8ff" stroke="#63b8ff" points="3513.02,-92.27 3520.78,-85.06 3510.22,-85.86 3513.02,-92.27"/>
</a>
</g>
</g>
<!-- Node34 -->
<g id="Node000034" class="node">
<title>Node34</title>
<g id="a_Node000034"><a xlink:title=" ">
<polygon fill="#e0e0e0" stroke="#999999" points="3745,-85 3629,-85 3629,-55 3745,-55 3745,-85"/>
<text text-anchor="start" x="3637" y="-73" font-family="Helvetica,sans-Serif" font-size="10.00">Engine/ECS/Systems</text>
<text text-anchor="middle" x="3687" y="-62" font-family="Helvetica,sans-Serif" font-size="10.00">/RenderSystem.h</text>
</a>
</g>
</g>
<!-- Node1&#45;&gt;Node34 -->
<g id="edge32_Node000001_Node000034" class="edge">
<title>Node1&#45;&gt;Node34</title>
<g id="a_edge32_Node000001_Node000034"><a xlink:title=" ">
<path fill="none" stroke="#63b8ff" d="M3442.78,-124.31C3481.96,-115.76 3561.46,-98.4 3619.14,-85.81"/>
<polygon fill="#63b8ff" stroke="#63b8ff" points="3619.9,-89.23 3628.92,-83.68 3618.4,-82.39 3619.9,-89.23"/>
</a>
</g>
</g>
<!-- Node35 -->
<g id="Node000035" class="node">
<title>Node35</title>
<g id="a_Node000035"><a xlink:title=" ">
<polygon fill="#e0e0e0" stroke="#999999" points="3906.5,-85 3763.5,-85 3763.5,-55 3906.5,-55 3906.5,-85"/>
<text text-anchor="start" x="3771.5" y="-73" font-family="Helvetica,sans-Serif" font-size="10.00">Engine/Events/Application</text>
<text text-anchor="middle" x="3835" y="-62" font-family="Helvetica,sans-Serif" font-size="10.00">Event.h</text>
</a>
</g>
</g>
<!-- Node1&#45;&gt;Node35 -->
<g id="edge33_Node000001_Node000035" class="edge">
<title>Node1&#45;&gt;Node35</title>
<g id="a_edge33_Node000001_Node000035"><a xlink:title=" ">
<path fill="none" stroke="#63b8ff" d="M3442.6,-126.69C3495.95,-120.26 3630.1,-103.71 3753.47,-85.04"/>
<polygon fill="#63b8ff" stroke="#63b8ff" points="3754.11,-88.48 3763.47,-83.52 3753.06,-81.56 3754.11,-88.48"/>
</a>
</g>
</g>
<!-- Node36 -->
<g id="Node000036" class="node">
<title>Node36</title>
<g id="a_Node000036"><a xlink:title=" ">
<polygon fill="#e0e0e0" stroke="#999999" points="4077,-79.5 3925,-79.5 3925,-60.5 4077,-60.5 4077,-79.5"/>
<text text-anchor="middle" x="4001" y="-67.5" font-family="Helvetica,sans-Serif" font-size="10.00">Engine/Events/AssetEvent.h</text>
</a>
</g>
</g>
<!-- Node1&#45;&gt;Node36 -->
<g id="edge34_Node000001_Node000036" class="edge">
<title>Node1&#45;&gt;Node36</title>
<g id="a_edge34_Node000001_Node000036"><a xlink:title=" ">
<path fill="none" stroke="#63b8ff" d="M3442.61,-128.01C3514.1,-123.36 3734.45,-108.05 3916,-85 3924.73,-83.89 3933.94,-82.55 3942.95,-81.15"/>
<polygon fill="#63b8ff" stroke="#63b8ff" points="3943.67,-84.58 3952.99,-79.54 3942.56,-77.67 3943.67,-84.58"/>
</a>
</g>
</g>
<!-- Node37 -->
<g id="Node000037" class="node">
<title>Node37</title>
<g id="a_Node000037"><a xlink:href="Event_8h.html" target="_top" xlink:title="Defines the base Event class and event&#45;related utilities.">
<polygon fill="white" stroke="#666666" points="4220.5,-79.5 4095.5,-79.5 4095.5,-60.5 4220.5,-60.5 4220.5,-79.5"/>
<text text-anchor="middle" x="4158" y="-67.5" font-family="Helvetica,sans-Serif" font-size="10.00">Engine/Events/Event.h</text>
</a>
</g>
</g>
<!-- Node1&#45;&gt;Node37 -->
<g id="edge35_Node000001_Node000037" class="edge">
<title>Node1&#45;&gt;Node37</title>
<g id="a_edge35_Node000001_Node000037"><a xlink:title=" ">
<path fill="none" stroke="#63b8ff" d="M3442.74,-128.99C3529.25,-126.91 3835.69,-117.56 4086,-85 4093.46,-84.03 4101.32,-82.76 4108.99,-81.38"/>
<polygon fill="#63b8ff" stroke="#63b8ff" points="4109.72,-84.81 4118.91,-79.53 4108.44,-77.93 4109.72,-84.81"/>
</a>
</g>
</g>
<!-- Node38 -->
<g id="Node000038" class="node">
<title>Node38</title>
<g id="a_Node000038"><a xlink:href="EventQueue_8h.html" target="_top" xlink:title="Defines the EventQueue class for managing event processing.">
<polygon fill="#fff0f0" stroke="red" points="4395.5,-79.5 4238.5,-79.5 4238.5,-60.5 4395.5,-60.5 4395.5,-79.5"/>
<text text-anchor="middle" x="4317" y="-67.5" font-family="Helvetica,sans-Serif" font-size="10.00">Engine/Events/EventQueue.h</text>
</a>
</g>
</g>
<!-- Node1&#45;&gt;Node38 -->
<g id="edge36_Node000001_Node000038" class="edge">
<title>Node1&#45;&gt;Node38</title>
<g id="a_edge36_Node000001_Node000038"><a xlink:title=" ">
<path fill="none" stroke="#63b8ff" d="M3442.63,-129.11C3540.02,-127.3 3919.8,-118.38 4230,-85 4239.6,-83.97 4249.75,-82.59 4259.59,-81.11"/>
<polygon fill="#63b8ff" stroke="#63b8ff" points="4260.37,-84.53 4269.71,-79.53 4259.29,-77.61 4260.37,-84.53"/>
</a>
</g>
</g>
<!-- Node40 -->
<g id="Node000040" class="node">
<title>Node40</title>
<g id="a_Node000040"><a xlink:href="KeyCodes_8h.html" target="_top" xlink:title="Contains the key codes enumeration and key constants for input handling.">
<polygon fill="white" stroke="#666666" points="4560,-79.5 4414,-79.5 4414,-60.5 4560,-60.5 4560,-79.5"/>
<text text-anchor="middle" x="4487" y="-67.5" font-family="Helvetica,sans-Serif" font-size="10.00">Engine/Events/KeyCodes.h</text>
</a>
</g>
</g>
<!-- Node1&#45;&gt;Node40 -->
<g id="edge37_Node000001_Node000040" class="edge">
<title>Node1&#45;&gt;Node40</title>
<g id="a_edge37_Node000001_Node000040"><a xlink:title=" ">
<path fill="none" stroke="#63b8ff" d="M3442.74,-129.51C3552.59,-129.34 4022.51,-126.12 4405,-85 4414.07,-84.02 4423.65,-82.68 4432.95,-81.2"/>
<polygon fill="#63b8ff" stroke="#63b8ff" points="4433.58,-84.65 4442.88,-79.57 4432.45,-77.74 4433.58,-84.65"/>
</a>
</g>
</g>
<!-- Node41 -->
<g id="Node000041" class="node">
<title>Node41</title>
<g id="a_Node000041"><a xlink:title=" ">
<polygon fill="#e0e0e0" stroke="#999999" points="4721.5,-79.5 4578.5,-79.5 4578.5,-60.5 4721.5,-60.5 4721.5,-79.5"/>
<text text-anchor="middle" x="4650" y="-67.5" font-family="Helvetica,sans-Serif" font-size="10.00">Engine/Events/KeyEvent.h</text>
</a>
</g>
</g>
<!-- Node1&#45;&gt;Node41 -->
<g id="edge38_Node000001_Node000041" class="edge">
<title>Node1&#45;&gt;Node41</title>
<g id="a_edge38_Node000001_Node000041"><a xlink:title=" ">
<path fill="none" stroke="#63b8ff" d="M3442.56,-129.74C3562.6,-130.75 4117.94,-132.5 4569,-85 4578.07,-84.05 4587.65,-82.69 4596.94,-81.21"/>
<polygon fill="#63b8ff" stroke="#63b8ff" points="4597.56,-84.65 4606.85,-79.55 4596.41,-77.75 4597.56,-84.65"/>
</a>
</g>
</g>
<!-- Node42 -->
<g id="Node000042" class="node">
<title>Node42</title>
<g id="a_Node000042"><a xlink:title=" ">
<polygon fill="#e0e0e0" stroke="#999999" points="4900,-79.5 4740,-79.5 4740,-60.5 4900,-60.5 4900,-79.5"/>
<text text-anchor="middle" x="4820" y="-67.5" font-family="Helvetica,sans-Serif" font-size="10.00">Engine/Events/MouseCodes.h</text>
</a>
</g>
</g>
<!-- Node1&#45;&gt;Node42 -->
<g id="edge39_Node000001_Node000042" class="edge">
<title>Node1&#45;&gt;Node42</title>
<g id="a_edge39_Node000001_Node000042"><a xlink:title=" ">
<path fill="none" stroke="#63b8ff" d="M3442.79,-129.78C3572.96,-131.05 4212.01,-134.43 4731,-85 4741.27,-84.02 4752.15,-82.62 4762.65,-81.08"/>
<polygon fill="#63b8ff" stroke="#63b8ff" points="4763.2,-84.53 4772.56,-79.56 4762.15,-77.61 4763.2,-84.53"/>
</a>
</g>
</g>
<!-- Node43 -->
<g id="Node000043" class="node">
<title>Node43</title>
<g id="a_Node000043"><a xlink:title=" ">
<polygon fill="#e0e0e0" stroke="#999999" points="5076,-79.5 4918,-79.5 4918,-60.5 5076,-60.5 5076,-79.5"/>
<text text-anchor="middle" x="4997" y="-67.5" font-family="Helvetica,sans-Serif" font-size="10.00">Engine/Events/MouseEvent.h</text>
</a>
</g>
</g>
<!-- Node1&#45;&gt;Node43 -->
<g id="edge40_Node000001_Node000043" class="edge">
<title>Node1&#45;&gt;Node43</title>
<g id="a_edge40_Node000001_Node000043"><a xlink:title=" ">
<path fill="none" stroke="#63b8ff" d="M3442.64,-129.21C3609.08,-127.1 4607.06,-113.41 4909,-85 4919.27,-84.03 4930.16,-82.62 4940.65,-81.06"/>
<polygon fill="#63b8ff" stroke="#63b8ff" points="4941.21,-84.52 4950.56,-79.53 4940.14,-77.6 4941.21,-84.52"/>
</a>
</g>
</g>
<!-- Node44 -->
<g id="Node000044" class="node">
<title>Node44</title>
<g id="a_Node000044"><a xlink:title=" ">
<polygon fill="#e0e0e0" stroke="#999999" points="5258,-79.5 5094,-79.5 5094,-60.5 5258,-60.5 5258,-79.5"/>
<text text-anchor="middle" x="5176" y="-67.5" font-family="Helvetica,sans-Serif" font-size="10.00">Engine/ImGui/ImGuiElement.h</text>
</a>
</g>
</g>
<!-- Node1&#45;&gt;Node44 -->
<g id="edge41_Node000001_Node000044" class="edge">
<title>Node1&#45;&gt;Node44</title>
<g id="a_edge41_Node000001_Node000044"><a xlink:title=" ">
<path fill="none" stroke="#63b8ff" d="M3442.53,-129.28C3619.6,-127.56 4745.49,-115.53 5085,-85 5095.73,-84.04 5107.11,-82.61 5118.06,-81.03"/>
<polygon fill="#63b8ff" stroke="#63b8ff" points="5118.6,-84.49 5127.97,-79.55 5117.56,-77.57 5118.6,-84.49"/>
</a>
</g>
</g>
<!-- Node45 -->
<g id="Node000045" class="node">
<title>Node45</title>
<g id="a_Node000045"><a xlink:title=" ">
<polygon fill="#e0e0e0" stroke="#999999" points="5428,-79.5 5276,-79.5 5276,-60.5 5428,-60.5 5428,-79.5"/>
<text text-anchor="middle" x="5352" y="-67.5" font-family="Helvetica,sans-Serif" font-size="10.00">Engine/Layers/ImGuiLayer.h</text>
</a>
</g>
</g>
<!-- Node1&#45;&gt;Node45 -->
<g id="edge42_Node000001_Node000045" class="edge">
<title>Node1&#45;&gt;Node45</title>
<g id="a_edge42_Node000001_Node000045"><a xlink:title=" ">
<path fill="none" stroke="#63b8ff" d="M3442.66,-129.38C3630.92,-128.39 4888.97,-120.51 5267,-85 5276.94,-84.07 5287.47,-82.67 5297.62,-81.11"/>
<polygon fill="#63b8ff" stroke="#63b8ff" points="5298.28,-84.55 5307.6,-79.51 5297.17,-77.64 5298.28,-84.55"/>
</a>
</g>
</g>
<!-- Node46 -->
<g id="Node000046" class="node">
<title>Node46</title>
<g id="a_Node000046"><a xlink:title=" ">
<polygon fill="#e0e0e0" stroke="#999999" points="5598,-79.5 5446,-79.5 5446,-60.5 5598,-60.5 5598,-79.5"/>
<text text-anchor="middle" x="5522" y="-67.5" font-family="Helvetica,sans-Serif" font-size="10.00">Engine/Renderer/Renderer.h</text>
</a>
</g>
</g>
<!-- Node1&#45;&gt;Node46 -->
<g id="edge43_Node000001_Node000046" class="edge">
<title>Node1&#45;&gt;Node46</title>
<g id="a_edge43_Node000001_Node000046"><a xlink:title=" ">
<path fill="none" stroke="#63b8ff" d="M3442.6,-129.44C3640.24,-128.86 5022.65,-123.5 5437,-85 5446.94,-84.08 5457.48,-82.68 5467.62,-81.13"/>
<polygon fill="#63b8ff" stroke="#63b8ff" points="5468.28,-84.57 5477.6,-79.53 5467.17,-77.65 5468.28,-84.57"/>
</a>
</g>
</g>
<!-- Node47 -->
<g id="Node000047" class="node">
<title>Node47</title>
<g id="a_Node000047"><a xlink:title=" ">
<polygon fill="#e0e0e0" stroke="#999999" points="5810,-79.5 5616,-79.5 5616,-60.5 5810,-60.5 5810,-79.5"/>
<text text-anchor="middle" x="5713" y="-67.5" font-family="Helvetica,sans-Serif" font-size="10.00">Engine/Renderer/RenderCommand.h</text>
</a>
</g>
</g>
<!-- Node1&#45;&gt;Node47 -->
<g id="edge44_Node000001_Node000047" class="edge">
<title>Node1&#45;&gt;Node47</title>
<g id="a_edge44_Node000001_Node000047"><a xlink:title=" ">
<path fill="none" stroke="#63b8ff" d="M3442.59,-129.38C3649.31,-128.3 5155.7,-119.29 5607,-85 5620.13,-84 5634.12,-82.48 5647.48,-80.81"/>
<polygon fill="#63b8ff" stroke="#63b8ff" points="5648.09,-84.26 5657.56,-79.5 5647.19,-77.32 5648.09,-84.26"/>
</a>
</g>
</g>
<!-- Node48 -->
<g id="Node000048" class="node">
<title>Node48</title>
<g id="a_Node000048"><a xlink:title=" ">
<polygon fill="#e0e0e0" stroke="#999999" points="5960,-85 5828,-85 5828,-55 5960,-55 5960,-85"/>
<text text-anchor="start" x="5836" y="-73" font-family="Helvetica,sans-Serif" font-size="10.00">Engine/Renderer/Assets</text>
<text text-anchor="middle" x="5894" y="-62" font-family="Helvetica,sans-Serif" font-size="10.00">/MeshData.h</text>
</a>
</g>
</g>
<!-- Node1&#45;&gt;Node48 -->
<g id="edge45_Node000001_Node000048" class="edge">
<title>Node1&#45;&gt;Node48</title>
<g id="a_edge45_Node000001_Node000048"><a xlink:title=" ">
<path fill="none" stroke="#63b8ff" d="M3442.79,-129.61C3659.93,-130.48 5301.71,-135.42 5817.71,-84.98"/>
<polygon fill="#63b8ff" stroke="#63b8ff" points="5818.23,-88.44 5827.83,-83.97 5817.53,-81.48 5818.23,-88.44"/>
</a>
</g>
</g>
<!-- Node49 -->
<g id="Node000049" class="node">
<title>Node49</title>
<g id="a_Node000049"><a xlink:title=" ">
<polygon fill="#e0e0e0" stroke="#999999" points="6110,-85 5978,-85 5978,-55 6110,-55 6110,-85"/>
<text text-anchor="start" x="5986" y="-73" font-family="Helvetica,sans-Serif" font-size="10.00">Engine/Renderer/Assets</text>
<text text-anchor="middle" x="6044" y="-62" font-family="Helvetica,sans-Serif" font-size="10.00">/Shader.h</text>
</a>
</g>
</g>
<!-- Node1&#45;&gt;Node49 -->
<g id="edge46_Node000001_Node000049" class="edge">
<title>Node1&#45;&gt;Node49</title>
<g id="a_edge46_Node000001_Node000049"><a xlink:title=" ">
<path fill="none" stroke="#63b8ff" d="M3442.62,-129.33C3681.44,-127.56 5656.91,-112.22 5967.49,-84.95"/>
<polygon fill="#63b8ff" stroke="#63b8ff" points="5968.21,-88.39 5977.83,-83.97 5967.55,-81.43 5968.21,-88.39"/>
</a>
</g>
</g>
<!-- Node50 -->
<g id="Node000050" class="node">
<title>Node50</title>
<g id="a_Node000050"><a xlink:title=" ">
<polygon fill="#e0e0e0" stroke="#999999" points="6260,-85 6128,-85 6128,-55 6260,-55 6260,-85"/>
<text text-anchor="start" x="6136" y="-73" font-family="Helvetica,sans-Serif" font-size="10.00">Engine/Renderer/Assets</text>
<text text-anchor="middle" x="6194" y="-62" font-family="Helvetica,sans-Serif" font-size="10.00">/Texture.h</text>
</a>
</g>
</g>
<!-- Node1&#45;&gt;Node50 -->
<g id="edge47_Node000001_Node000050" class="edge">
<title>Node1&#45;&gt;Node50</title>
<g id="a_edge47_Node000001_Node000050"><a xlink:title=" ">
<path fill="none" stroke="#63b8ff" d="M3442.83,-129.35C3690.51,-127.78 5792.11,-113.65 6117.85,-84.92"/>
<polygon fill="#63b8ff" stroke="#63b8ff" points="6118.21,-88.4 6127.83,-83.97 6117.55,-81.43 6118.21,-88.4"/>
</a>
</g>
</g>
<!-- Node51 -->
<g id="Node000051" class="node">
<title>Node51</title>
<g id="a_Node000051"><a xlink:title=" ">
<polygon fill="#e0e0e0" stroke="#999999" points="6415.5,-79.5 6278.5,-79.5 6278.5,-60.5 6415.5,-60.5 6415.5,-79.5"/>
<text text-anchor="middle" x="6347" y="-67.5" font-family="Helvetica,sans-Serif" font-size="10.00">Engine/Renderer/Buffer.h</text>
</a>
</g>
</g>
<!-- Node1&#45;&gt;Node51 -->
<g id="edge48_Node000001_Node000051" class="edge">
<title>Node1&#45;&gt;Node51</title>
<g id="a_edge48_Node000001_Node000051"><a xlink:title=" ">
<path fill="none" stroke="#63b8ff" d="M3442.53,-129.37C3699.02,-127.87 5971.63,-113.82 6269,-85 6277.95,-84.13 6287.42,-82.79 6296.56,-81.28"/>
<polygon fill="#63b8ff" stroke="#63b8ff" points="6297.44,-84.68 6306.69,-79.52 6296.24,-77.79 6297.44,-84.68"/>
</a>
</g>
</g>
<!-- Node52 -->
<g id="Node000052" class="node">
<title>Node52</title>
<g id="a_Node000052"><a xlink:title=" ">
<polygon fill="#e0e0e0" stroke="#999999" points="6604.5,-79.5 6433.5,-79.5 6433.5,-60.5 6604.5,-60.5 6604.5,-79.5"/>
<text text-anchor="middle" x="6519" y="-67.5" font-family="Helvetica,sans-Serif" font-size="10.00">Engine/Renderer/BufferLayout.h</text>
</a>
</g>
</g>
<!-- Node1&#45;&gt;Node52 -->
<g id="edge49_Node000001_Node000052" class="edge">
<title>Node1&#45;&gt;Node52</title>
<g id="a_edge49_Node000001_Node000052"><a xlink:title=" ">
<path fill="none" stroke="#63b8ff" d="M3442.68,-129.59C3689.68,-130.43 5798.48,-136.07 6425,-85 6436.45,-84.07 6448.62,-82.61 6460.28,-80.97"/>
<polygon fill="#63b8ff" stroke="#63b8ff" points="6460.96,-84.41 6470.35,-79.5 6459.95,-77.48 6460.96,-84.41"/>
</a>
</g>
</g>
<!-- Node53 -->
<g id="Node000053" class="node">
<title>Node53</title>
<g id="a_Node000053"><a xlink:title=" ">
<polygon fill="#e0e0e0" stroke="#999999" points="6791,-79.5 6623,-79.5 6623,-60.5 6791,-60.5 6791,-79.5"/>
<text text-anchor="middle" x="6707" y="-67.5" font-family="Helvetica,sans-Serif" font-size="10.00">Engine/Renderer/FrameBuffer.h</text>
</a>
</g>
</g>
<!-- Node1&#45;&gt;Node53 -->
<g id="edge50_Node000001_Node000053" class="edge">
<title>Node1&#45;&gt;Node53</title>
<g id="a_edge50_Node000001_Node000053"><a xlink:title=" ">
<path fill="none" stroke="#63b8ff" d="M3442.76,-129.37C3717.03,-127.79 6279.15,-112.41 6614,-85 6625.33,-84.07 6637.37,-82.61 6648.9,-80.98"/>
<polygon fill="#63b8ff" stroke="#63b8ff" points="6649.49,-84.43 6658.88,-79.51 6648.47,-77.51 6649.49,-84.43"/>
</a>
</g>
</g>
<!-- Node54 -->
<g id="Node000054" class="node">
<title>Node54</title>
<g id="a_Node000054"><a xlink:title=" ">
<polygon fill="#e0e0e0" stroke="#999999" points="6985.5,-79.5 6808.5,-79.5 6808.5,-60.5 6985.5,-60.5 6985.5,-79.5"/>
<text text-anchor="middle" x="6897" y="-67.5" font-family="Helvetica,sans-Serif" font-size="10.00">Engine/Renderer/UniformBuffer.h</text>
</a>
</g>
</g>
<!-- Node1&#45;&gt;Node54 -->
<g id="edge51_Node000001_Node000054" class="edge">
<title>Node1&#45;&gt;Node54</title>
<g id="a_edge51_Node000001_Node000054"><a xlink:title=" ">
<path fill="none" stroke="#63b8ff" d="M3442.82,-129.38C3725.97,-127.88 6445.02,-112.83 6800,-85 6811.93,-84.06 6824.62,-82.59 6836.76,-80.94"/>
<polygon fill="#63b8ff" stroke="#63b8ff" points="6837.38,-84.38 6846.79,-79.52 6836.4,-77.45 6837.38,-84.38"/>
</a>
</g>
</g>
<!-- Node55 -->
<g id="Node000055" class="node">
<title>Node55</title>
<g id="a_Node000055"><a xlink:title=" ">
<polygon fill="#e0e0e0" stroke="#999999" points="7168.5,-79.5 7003.5,-79.5 7003.5,-60.5 7168.5,-60.5 7168.5,-79.5"/>
<text text-anchor="middle" x="7086" y="-67.5" font-family="Helvetica,sans-Serif" font-size="10.00">Engine/Renderer/VertexArray.h</text>
</a>
</g>
</g>
<!-- Node1&#45;&gt;Node55 -->
<g id="edge52_Node000001_Node000055" class="edge">
<title>Node1&#45;&gt;Node55</title>
<g id="a_edge52_Node000001_Node000055"><a xlink:title=" ">
<path fill="none" stroke="#63b8ff" d="M3442.82,-129.41C3734.79,-128.25 6619.1,-116.1 6995,-85 7005.98,-84.09 7017.64,-82.66 7028.82,-81.05"/>
<polygon fill="#63b8ff" stroke="#63b8ff" points="7029.55,-84.48 7038.92,-79.53 7028.51,-77.56 7029.55,-84.48"/>
</a>
</g>
</g>
<!-- Node3 -->
<g id="Node000003" class="node">
<title>Node3</title>
<g id="a_Node000003"><a xlink:title=" ">
<polygon fill="#e0e0e0" stroke="#999999" points="238,-19 128,-19 128,0 238,0 238,-19"/>
<text text-anchor="middle" x="183" y="-7" font-family="Helvetica,sans-Serif" font-size="10.00">EASTL/unique_ptr.h</text>
</a>
</g>
</g>
<!-- Node2&#45;&gt;Node3 -->
<g id="edge2_Node000002_Node000003" class="edge">
<title>Node2&#45;&gt;Node3</title>
<g id="a_edge2_Node000002_Node000003"><a xlink:title=" ">
<path fill="none" stroke="#63b8ff" d="M91.79,-60.37C109.33,-50.78 137.88,-35.17 158.37,-23.97"/>
<polygon fill="#63b8ff" stroke="#63b8ff" points="160.05,-27.04 167.15,-19.17 156.69,-20.89 160.05,-27.04"/>
</a>
</g>
</g>
<!-- Node4 -->
<g id="Node000004" class="node">
<title>Node4</title>
<g id="a_Node000004"><a xlink:title=" ">
<polygon fill="#e0e0e0" stroke="#999999" points="110,-19 0,-19 0,0 110,0 110,-19"/>
<text text-anchor="middle" x="55" y="-7" font-family="Helvetica,sans-Serif" font-size="10.00">EASTL/shared_ptr.h</text>
</a>
</g>
</g>
<!-- Node2&#45;&gt;Node4 -->
<g id="edge3_Node000002_Node000004" class="edge">
<title>Node2&#45;&gt;Node4</title>
<g id="a_edge3_Node000002_Node000004"><a xlink:title=" ">
<path fill="none" stroke="#63b8ff" d="M72.9,-60.37C69.92,-52.07 65.33,-39.28 61.54,-28.72"/>
<polygon fill="#63b8ff" stroke="#63b8ff" points="64.78,-27.4 58.11,-19.17 58.2,-29.76 64.78,-27.4"/>
</a>
</g>
</g>
<!-- Node6&#45;&gt;Node7 -->
<g id="edge6_Node000006_Node000007" class="edge">
<title>Node6&#45;&gt;Node7</title>
<g id="a_edge6_Node000006_Node000007"><a xlink:title=" ">
<path fill="none" stroke="#63b8ff" d="M371.19,-60.49C393.39,-50.66 430.12,-34.38 455.62,-23.08"/>
<polygon fill="#63b8ff" stroke="#63b8ff" points="457.06,-26.27 464.78,-19.02 454.22,-19.87 457.06,-26.27"/>
</a>
</g>
</g>
<!-- Node8 -->
<g id="Node000008" class="node">
<title>Node8</title>
<g id="a_Node000008"><a xlink:title=" ">
<polygon fill="#e0e0e0" stroke="#999999" points="409.5,-19 268.5,-19 268.5,0 409.5,0 409.5,-19"/>
<text text-anchor="middle" x="339" y="-7" font-family="Helvetica,sans-Serif" font-size="10.00">Engine/Core/LayerStack.h</text>
</a>
</g>
</g>
<!-- Node6&#45;&gt;Node8 -->
<g id="edge7_Node000006_Node000008" class="edge">
<title>Node6&#45;&gt;Node8</title>
<g id="a_edge7_Node000006_Node000008"><a xlink:title=" ">
<path fill="none" stroke="#63b8ff" d="M350.08,-60.37C348.26,-52.16 345.45,-39.54 343.12,-29.05"/>
<polygon fill="#63b8ff" stroke="#63b8ff" points="346.51,-28.17 340.93,-19.17 339.68,-29.69 346.51,-28.17"/>
</a>
</g>
</g>
<!-- Node10 -->
<g id="Node000010" class="node">
<title>Node10</title>
<g id="a_Node000010"><a xlink:title=" ">
<polygon fill="#e0e0e0" stroke="#999999" points="1066.5,-19 983.5,-19 983.5,0 1066.5,0 1066.5,-19"/>
<text text-anchor="middle" x="1025" y="-7" font-family="Helvetica,sans-Serif" font-size="10.00">glm/vec2.hpp</text>
</a>
</g>
</g>
<!-- Node9&#45;&gt;Node10 -->
<g id="edge10_Node000009_Node000010" class="edge">
<title>Node9&#45;&gt;Node10</title>
<g id="a_edge10_Node000009_Node000010"><a xlink:title=" ">
<path fill="none" stroke="#63b8ff" d="M1412.99,-60.43C1403.87,-58.48 1394.11,-56.54 1385,-55 1276.03,-36.57 1147.29,-22.49 1077.09,-15.47"/>
<polygon fill="#63b8ff" stroke="#63b8ff" points="1077.05,-11.95 1066.75,-14.44 1076.36,-18.91 1077.05,-11.95"/>
</a>
</g>
</g>
<!-- Node18&#45;&gt;Node7 -->
<g id="edge18_Node000018_Node000007" class="edge">
<title>Node18&#45;&gt;Node7</title>
<g id="a_edge18_Node000018_Node000007"><a xlink:title=" ">
<path fill="none" stroke="#63b8ff" d="M533.44,-60.37C524.62,-51.47 510.66,-37.39 499.82,-26.45"/>
<polygon fill="#63b8ff" stroke="#63b8ff" points="502.12,-23.8 492.59,-19.17 497.15,-28.73 502.12,-23.8"/>
</a>
</g>
</g>
<!-- Node18&#45;&gt;Node10 -->
<g id="edge17_Node000018_Node000010" class="edge">
<title>Node18&#45;&gt;Node10</title>
<g id="a_edge17_Node000018_Node000010"><a xlink:title=" ">
<path fill="none" stroke="#63b8ff" d="M582.07,-60.47C592.14,-58.5 602.94,-56.53 613,-55 741.99,-35.36 894.99,-21.21 973.24,-14.63"/>
<polygon fill="#63b8ff" stroke="#63b8ff" points="973.65,-18.11 983.32,-13.79 973.07,-11.14 973.65,-18.11"/>
</a>
</g>
</g>
</g>
</svg>

<g id="navigator" transform="translate(0 0)" fill="#404254">
  <rect fill="#f2f5e9" fill-opacity="0.5" stroke="#606060" stroke-width=".5" x="0" y="0" width="60" height="60"/>
  <use id="zoomplus" xlink:href="#zoomPlus" x="17" y="9" onmousedown="handleZoom(evt,'in')"/>
  <use id="zoomminus" xlink:href="#zoomMin" x="42" y="9" onmousedown="handleZoom(evt,'out')"/>
  <use id="reset" xlink:href="#resetDef" x="30" y="36" onmousedown="handleReset()"/>
   <use id="arrowup" xlink:href="#arrowUp" x="0" y="0" onmousedown="handlePan(0,-1)"/>
  <use id="arrowright" xlink:href="#arrowRight" x="0" y="0" onmousedown="handlePan(1,0)"/>
  <use id="arrowdown" xlink:href="#arrowDown" x="0" y="0" onmousedown="handlePan(0,1)"/>
  <use id="arrowleft" xlink:href="#arrowLeft" x="0" y="0" onmousedown="handlePan(-1,0)"/>
</g>
<svg viewBox="0 0 15 15" width="100%" height="30px" preserveAspectRatio="xMaxYMin meet">
 <g id="arrow_out" transform="scale(0.3 0.3)">
  <a xlink:href="Ares_8h__incl_org.svg" target="_base">
   <rect id="button" ry="5" rx="5" y="6" x="6" height="38" width="38"
        fill="#f2f5e9" fill-opacity="0.5" stroke="#606060" stroke-width="1.0"/>
   <path id="arrow"
     d="M 11.500037,31.436501 C 11.940474,20.09759 22.043105,11.32322 32.158766,21.979434 L 37.068811,17.246167 C 37.068811,17.246167 37.088388,32 37.088388,32 L 22.160133,31.978069 C 22.160133,31.978069 26.997745,27.140456 26.997745,27.140456 C 18.528582,18.264221 13.291696,25.230495 11.500037,31.436501 z"
     style="fill:#404040;"/>
  </a>
 </g>
</svg>

<style type='text/css'>
<![CDATA[
[data-mouse-over-selected='false'] { opacity: 0.7; }
[data-mouse-over-selected='true']  { opacity: 1.0; }
]]>
</style>
<script type="application/ecmascript"><![CDATA[
document.addEventListener('DOMContentLoaded', (event) => {
  highlightEdges();
  highlightAdjacentNodes();
});
]]></script>
</svg>
