<?xml version="1.0" encoding="UTF-8" standalone="no"?>
<!DOCTYPE svg PUBLIC "-//W3C//DTD SVG 1.1//EN"
 "http://www.w3.org/Graphics/SVG/1.1/DTD/svg11.dtd">
<!-- Generated by graphviz version 2.43.0 (0)
 -->
<!-- Title: Window.h Pages: 1 -->
<svg width="222pt" height="82pt"
 viewBox="0.00 0.00 222.00 82.00" xmlns="http://www.w3.org/2000/svg" xmlns:xlink="http://www.w3.org/1999/xlink">
<g id="graph0" class="graph" transform="scale(1 1) rotate(0) translate(4 78)">
<title>Window.h</title>
<!-- Node1 -->
<g id="Node000001" class="node">
<title>Node1</title>
<g id="a_Node000001"><a xlink:title="contains the declaration of the Window interface and associated data structures.">
<polygon fill="#999999" stroke="#666666" points="131.5,-74 67.5,-74 67.5,-55 131.5,-55 131.5,-74"/>
<text text-anchor="middle" x="99.5" y="-62" font-family="Helvetica,sans-Serif" font-size="10.00">Window.h</text>
</a>
</g>
</g>
<!-- Node2 -->
<g id="Node000002" class="node">
<title>Node2</title>
<g id="a_Node000002"><a xlink:title=" ">
<polygon fill="#e0e0e0" stroke="#999999" points="83,-19 0,-19 0,0 83,0 83,-19"/>
<text text-anchor="middle" x="41.5" y="-7" font-family="Helvetica,sans-Serif" font-size="10.00">glm/vec2.hpp</text>
</a>
</g>
</g>
<!-- Node1&#45;&gt;Node2 -->
<g id="edge1_Node000001_Node000002" class="edge">
<title>Node1&#45;&gt;Node2</title>
<g id="a_edge1_Node000001_Node000002"><a xlink:title=" ">
<path fill="none" stroke="#63b8ff" d="M90.18,-54.98C81.69,-47.23 68.94,-35.58 58.62,-26.14"/>
<polygon fill="#63b8ff" stroke="#63b8ff" points="60.73,-23.33 50.99,-19.17 56.01,-28.5 60.73,-23.33"/>
</a>
</g>
</g>
<!-- Node3 -->
<g id="Node000003" class="node">
<title>Node3</title>
<g id="a_Node000003"><a xlink:href="Flags_8h.html" target="_top" xlink:title="Contains window configuration flags for the application.">
<polygon fill="white" stroke="#666666" points="214,-19 101,-19 101,0 214,0 214,-19"/>
<text text-anchor="middle" x="157.5" y="-7" font-family="Helvetica,sans-Serif" font-size="10.00">Engine/Core/Flags.h</text>
</a>
</g>
</g>
<!-- Node1&#45;&gt;Node3 -->
<g id="edge2_Node000001_Node000003" class="edge">
<title>Node1&#45;&gt;Node3</title>
<g id="a_edge2_Node000001_Node000003"><a xlink:title=" ">
<path fill="none" stroke="#63b8ff" d="M108.82,-54.98C117.31,-47.23 130.06,-35.58 140.38,-26.14"/>
<polygon fill="#63b8ff" stroke="#63b8ff" points="142.99,-28.5 148.01,-19.17 138.27,-23.33 142.99,-28.5"/>
</a>
</g>
</g>
</g>
</svg>
