v 0.5 0.5 0.5
v -0.5 0.5 0.5
v -0.5 -0.5 0.5
v 0.5 -0.5 0.5
v 0.5 -0.5 -0.5
v 0.5 0.5 -0.5
v -0.5 0.5 -0.5
v -0.5 -0.5 -0.5
vt 0.0 0.0
vt 0.0 1.0
vt 1.0 0.0
vt 1.0 1.0
vn 0.0 0.0 1.0
vn 1.0 0.0 0.0
vn 0.0 0.0 -1.0
vn -1.0 0.0 0.0
vn 0.0 -1.0 0.0
vn 0.0 1.0 0.0
f 3/1/1 4/3/1 1/4/1
f 1/4/1 2/2/1 3/1/1
f 4/1/2 5/3/2 6/4/2
f 6/4/2 1/2/2 4/1/2
f 5/1/3 8/3/3 7/4/3
f 7/4/3 6/2/3 5/1/3
f 8/1/4 3/3/4 2/4/4
f 2/4/4 7/2/4 8/1/4
f 2/1/6 1/3/6 6/4/6
f 6/4/6 7/2/6 2/1/6
f 5/1/5 4/3/5 3/4/5
f 3/4/5 8/2/5 5/1/5